<?xml version="1.0" standalone="no"?>
<!DOCTYPE svg PUBLIC "-//W3C//DTD SVG 1.1//EN"
"http://www.w3.org/Graphics/SVG/1.1/DTD/svg11.dtd">
<svg width="462mm" height="441.155mm" viewBox="-377 -202.303 462 441.155" xmlns="http://www.w3.org/2000/svg" version = "1.1">
<title>i3-90_assembly.123dx</title>
<desc> made with 123D Design </desc>
<path d="M -226.399 -170.46 L -226.399 -170.459 L -226.549 -170.245 L -226.549 -170.245 L -226.659 -170.009 L -226.66 -170.008 L -226.727 -169.756 L -226.727 -169.755 L -226.75 -169.496 L -226.75 -169.495 L -226.727 -169.235 L -226.727 -169.235 L -226.66 -168.983 L -226.66 -168.982 L -226.549 -168.746 L -226.549 -168.745 L -226.399 -168.531 L -226.399 -168.531 L -226.215 -168.346 L -226.214 -168.346 L -226 -168.196 L -226 -168.196 L -225.764 -168.086 L -225.763 -168.085 L -225.511 -168.018 L -225.51 -168.018 L -225.251 -167.995 L -225.25 -167.995 L -224.99 -168.018 L -224.99 -168.018 L -224.738 -168.085 L -224.737 -168.085 L -224.501 -168.196 L -224.5 -168.196 L -224.286 -168.346 L -224.286 -168.346 L -224.101 -168.53 L -224.101 -168.531 L -223.951 -168.745 L -223.951 -168.745 L -223.841 -168.981 L -223.84 -168.982 L -223.773 -169.234 L -223.773 -169.235 L -223.75 -169.494 L -223.75 -169.495 L -223.773 -169.755 L -223.773 -169.755 L -223.84 -170.008 L -223.84 -170.008 L -223.951 -170.245 L -223.951 -170.245 L -224.101 -170.459 L -224.101 -170.459 L -224.285 -170.644 L -224.286 -170.644 L -224.5 -170.794 L -224.5 -170.794 L -224.736 -170.904 L -224.737 -170.905 L -224.989 -170.972 L -224.99 -170.972 L -225.249 -170.995 L -225.25 -170.995 L -225.51 -170.972 L -225.51 -170.972 L -225.763 -170.905 L -225.763 -170.905 L -226 -170.794 L -226 -170.794 L -226.214 -170.644 L -226.214 -170.644 z  M -29.261 -168.018 L -29.2605 -168.018 L -29.0005 -167.995 L -29 -167.995 L -28.7401 -168.018 L -28.7395 -168.018 L -28.4875 -168.085 L -28.487 -168.085 L -28.2505 -168.196 L -28.25 -168.196 L -28.0363 -168.346 L -28.0358 -168.346 L -27.8513 -168.53 L -27.8509 -168.531 L -27.7013 -168.745 L -27.701 -168.745 L -27.5907 -168.981 L -27.5905 -168.982 L -27.5229 -169.234 L -27.5228 -169.235 L -27.5001 -169.494 L -27.5 -169.495 L -27.5227 -169.755 L -27.5228 -169.755 L -27.5903 -170.008 L -27.5905 -170.008 L -27.7007 -170.245 L -27.701 -170.245 L -27.8506 -170.459 L -27.8509 -170.459 L -28.0354 -170.644 L -28.0358 -170.644 L -28.2496 -170.794 L -28.25 -170.794 L -28.4865 -170.904 L -28.487 -170.905 L -28.739 -170.972 L -28.7395 -170.972 L -28.9995 -170.995 L -29 -170.995 L -29.2599 -170.972 L -29.2605 -170.972 L -29.5125 -170.905 L -29.513 -170.905 L -29.7495 -170.794 L -29.75 -170.794 L -29.9637 -170.644 L -29.9642 -170.644 L -30.1487 -170.46 L -30.1491 -170.459 L -30.2987 -170.245 L -30.299 -170.245 L -30.4093 -170.009 L -30.4095 -170.008 L -30.4771 -169.756 L -30.4772 -169.755 L -30.5 -169.496 L -30.5 -169.495 L -30.4773 -169.235 L -30.4772 -169.235 L -30.4097 -168.983 L -30.4095 -168.982 L -30.2993 -168.746 L -30.299 -168.745 L -30.1494 -168.531 L -30.1491 -168.531 L -29.9646 -168.346 L -29.9642 -168.346 L -29.7505 -168.196 L -29.75 -168.196 L -29.5135 -168.086 L -29.513 -168.085 z  M -54.1009 161.469 L -54.1013 161.47 L -54.2858 161.654 L -54.2863 161.654 L -54.5 161.804 L -54.5005 161.804 L -54.737 161.915 L -54.7375 161.915 L -54.9895 161.982 L -54.9901 161.982 L -55.25 162.005 L -55.2505 162.005 L -55.5105 161.982 L -55.511 161.982 L -55.763 161.915 L -55.7635 161.914 L -56 161.804 L -56.0005 161.804 L -56.2142 161.654 L -56.2146 161.654 L -56.3991 161.469 L -56.3994 161.469 L -56.549 161.255 L -56.5493 161.254 L -56.6595 161.018 L -56.6597 161.017 L -56.7272 160.765 L -56.7273 160.765 L -56.75 160.505 L -56.75 160.504 L -56.7272 160.245 L -56.7271 160.244 L -56.6595 159.992 L -56.6593 159.991 L -56.549 159.755 L -56.5487 159.755 L -56.3991 159.541 L -56.3987 159.54 L -56.2142 159.356 L -56.2137 159.356 L -56 159.206 L -55.9995 159.206 L -55.763 159.095 L -55.7625 159.095 L -55.5105 159.028 L -55.5099 159.028 L -55.25 159.005 L -55.2495 159.005 L -54.9895 159.028 L -54.989 159.028 L -54.737 159.095 L -54.7365 159.096 L -54.5 159.206 L -54.4995 159.206 L -54.2858 159.356 L -54.2854 159.356 L -54.1009 159.541 L -54.1006 159.541 L -53.951 159.755 L -53.9507 159.755 L -53.8405 159.992 L -53.8403 159.992 L -53.7728 160.245 L -53.7727 160.245 L -53.75 160.505 L -53.75 160.506 L -53.7728 160.765 L -53.7729 160.766 L -53.8405 161.018 L -53.8407 161.019 L -53.951 161.255 L -53.9513 161.255 z  M -128.56 -172.7 L -128.536 -172.429 L -128.466 -172.167 L -128.466 -172.166 L -128.351 -171.92 L -128.351 -171.92 L -128.195 -171.698 L -128.195 -171.697 L -128.003 -171.505 L -128.003 -171.505 L -127.78 -171.349 L -127.78 -171.349 L -127.534 -171.234 L -127.534 -171.234 L -127.271 -171.164 L -127.271 -171.164 L -127.001 -171.14 L -127 -171.14 L -126.73 -171.164 L -126.729 -171.164 L -126.467 -171.234 L -126.466 -171.234 L -126.22 -171.349 L -126.22 -171.349 L -125.998 -171.505 L -125.997 -171.505 L -125.805 -171.697 L -125.805 -171.697 L -125.649 -171.92 L -125.649 -171.92 L -125.534 -172.166 L -125.534 -172.166 L -125.464 -172.429 L -125.464 -172.429 L -125.44 -172.7 L -125.44 -172.7 L -125.464 -172.97 L -125.464 -172.971 L -125.534 -173.233 L -125.534 -173.234 L -125.649 -173.48 L -125.649 -173.48 L -125.805 -173.702 L -125.805 -173.703 L -125.997 -173.895 L -125.997 -173.895 L -126.22 -174.051 L -126.22 -174.051 L -126.466 -174.166 L -126.466 -174.166 L -126.729 -174.236 L -126.729 -174.236 L -127 -174.26 L -127 -174.26 L -127.27 -174.236 L -127.271 -174.236 L -127.533 -174.166 L -127.534 -174.166 L -127.78 -174.051 L -127.78 -174.051 L -128.002 -173.895 L -128.003 -173.895 L -128.195 -173.703 L -128.195 -173.703 L -128.351 -173.48 L -128.351 -173.48 L -128.466 -173.234 L -128.466 -173.234 L -128.536 -172.971 L -128.536 -172.971 L -128.56 -172.701 L -128.56 -172.7 z  M -226.727 160.244 L -226.727 160.245 L -226.75 160.504 L -226.75 160.505 L -226.727 160.765 L -226.727 160.765 L -226.66 161.017 L -226.66 161.018 L -226.549 161.254 L -226.549 161.255 L -226.399 161.469 L -226.399 161.469 L -226.215 161.654 L -226.214 161.654 L -226 161.804 L -226 161.804 L -225.764 161.914 L -225.763 161.915 L -225.511 161.982 L -225.51 161.982 L -225.251 162.005 L -225.25 162.005 L -224.99 161.982 L -224.99 161.982 L -224.738 161.915 L -224.737 161.915 L -224.501 161.804 L -224.5 161.804 L -224.286 161.654 L -224.286 161.654 L -224.101 161.47 L -224.101 161.469 L -223.951 161.255 L -223.951 161.255 L -223.841 161.019 L -223.84 161.018 L -223.773 160.766 L -223.773 160.765 L -223.75 160.506 L -223.75 160.505 L -223.773 160.245 L -223.773 160.245 L -223.84 159.992 L -223.84 159.992 L -223.951 159.755 L -223.951 159.755 L -224.101 159.541 L -224.101 159.541 L -224.285 159.356 L -224.286 159.356 L -224.5 159.206 L -224.5 159.206 L -224.736 159.096 L -224.737 159.095 L -224.989 159.028 L -224.99 159.028 L -225.249 159.005 L -225.25 159.005 L -225.51 159.028 L -225.51 159.028 L -225.763 159.095 L -225.763 159.095 L -226 159.206 L -226 159.206 L -226.214 159.356 L -226.214 159.356 L -226.399 159.54 L -226.399 159.541 L -226.549 159.755 L -226.549 159.755 L -226.659 159.991 L -226.66 159.992 z  M -56.7271 -169.756 L -56.7272 -169.755 L -56.75 -169.496 L -56.75 -169.495 L -56.7273 -169.235 L -56.7272 -169.235 L -56.6597 -168.983 L -56.6595 -168.982 L -56.5493 -168.746 L -56.549 -168.745 L -56.3994 -168.531 L -56.3991 -168.531 L -56.2146 -168.346 L -56.2142 -168.346 L -56.0005 -168.196 L -56 -168.196 L -55.7635 -168.086 L -55.763 -168.085 L -55.511 -168.018 L -55.5105 -168.018 L -55.2505 -167.995 L -55.25 -167.995 L -54.9901 -168.018 L -54.9895 -168.018 L -54.7375 -168.085 L -54.737 -168.085 L -54.5005 -168.196 L -54.5 -168.196 L -54.2863 -168.346 L -54.2858 -168.346 L -54.1013 -168.53 L -54.1009 -168.531 L -53.9513 -168.745 L -53.951 -168.745 L -53.8407 -168.981 L -53.8405 -168.982 L -53.7729 -169.234 L -53.7728 -169.235 L -53.75 -169.494 L -53.75 -169.495 L -53.7727 -169.755 L -53.7728 -169.755 L -53.8403 -170.008 L -53.8405 -170.008 L -53.9507 -170.245 L -53.951 -170.245 L -54.1006 -170.459 L -54.1009 -170.459 L -54.2854 -170.644 L -54.2858 -170.644 L -54.4995 -170.794 L -54.5 -170.794 L -54.7365 -170.904 L -54.737 -170.905 L -54.989 -170.972 L -54.9895 -170.972 L -55.2495 -170.995 L -55.25 -170.995 L -55.5099 -170.972 L -55.5105 -170.972 L -55.7625 -170.905 L -55.763 -170.905 L -55.9995 -170.794 L -56 -170.794 L -56.2137 -170.644 L -56.2142 -170.644 L -56.3987 -170.46 L -56.3991 -170.459 L -56.5487 -170.245 L -56.549 -170.245 L -56.6593 -170.009 L -56.6595 -170.008 z  M -150.05 212.889 L -150.075 218.8 L -148.763 218.8 L -147.591 218.8 L -144.437 218.8 L -142.433 218.8 L -137 218.8 L -137 216.578 L -137 210.117 L -137 209.989 L -137 209.86 L -137 209.735 L -137 209.621 L -137 209.519 L -137 207.8 L -142.586 207.8 L -145.459 207.8 L -145.554 207.8 L -145.67 207.8 L -145.805 207.8 L -145.957 207.8 L -146.121 207.8 L -146.288 207.8 L -146.447 207.8 L -146.586 207.8 L -146.693 207.8 L -146.76 207.8 L -162.075 207.8 L -162.265 207.8 L -162.504 207.8 L -162.769 207.8 L -163.044 207.8 L -163.31 207.8 L -163.557 207.8 L -163.778 207.8 L -163.97 207.8 L -164.131 207.8 L -167 207.8 L -167 207.901 L -167 208.435 L -167 210.505 L -167 218.8 L -161.567 218.8 L -159.563 218.8 L -156.409 218.8 L -153.925 218.8 L -153.95 212.889 L -153.944 211.8 L -153.27 211.8 L -153.238 211.8 L -152.615 211.8 L -152.567 211.8 L -152 211.8 L -151.433 211.8 L -151.385 211.8 L -150.762 211.8 L -150.73 211.8 L -150.056 211.8 z  M -163.5 190.8 L -163.477 191.06 L -163.41 191.313 L -163.41 191.313 L -163.299 191.55 L -163.299 191.55 L -163.149 191.764 L -163.149 191.764 L -162.965 191.949 L -162.964 191.949 L -162.75 192.099 L -162.75 192.099 L -162.513 192.209 L -162.513 192.21 L -162.261 192.277 L -162.26 192.277 L -162.001 192.3 L -162 192.3 L -161.74 192.277 L -161.74 192.277 L -161.487 192.21 L -161.487 192.21 L -161.25 192.099 L -161.25 192.099 L -161.036 191.949 L -161.036 191.949 L -160.851 191.765 L -160.851 191.764 L -160.701 191.55 L -160.701 191.55 L -160.591 191.313 L -160.59 191.313 L -160.523 191.061 L -160.523 191.06 L -160.5 190.8 L -160.5 190.8 L -160.523 190.54 L -160.523 190.54 L -160.59 190.287 L -160.59 190.287 L -160.701 190.05 L -160.701 190.05 L -160.851 189.836 L -160.851 189.836 L -161.035 189.651 L -161.036 189.651 L -161.25 189.501 L -161.25 189.501 L -161.487 189.391 L -161.487 189.39 L -161.739 189.323 L -161.74 189.323 L -162 189.3 L -162 189.3 L -162.26 189.323 L -162.26 189.323 L -162.513 189.39 L -162.513 189.39 L -162.75 189.501 L -162.75 189.501 L -162.964 189.651 L -162.964 189.651 L -163.149 189.835 L -163.149 189.836 L -163.299 190.05 L -163.299 190.05 L -163.409 190.287 L -163.41 190.287 L -163.477 190.539 L -163.477 190.54 L -163.5 190.8 L -163.5 190.8 z  M -30.4771 160.244 L -30.4772 160.245 L -30.5 160.504 L -30.5 160.505 L -30.4773 160.765 L -30.4772 160.765 L -30.4097 161.017 L -30.4095 161.018 L -30.2993 161.254 L -30.299 161.255 L -30.1494 161.469 L -30.1491 161.469 L -29.9646 161.654 L -29.9642 161.654 L -29.7505 161.804 L -29.75 161.804 L -29.5135 161.914 L -29.513 161.915 L -29.261 161.982 L -29.2605 161.982 L -29.0005 162.005 L -29 162.005 L -28.7401 161.982 L -28.7395 161.982 L -28.4875 161.915 L -28.487 161.915 L -28.2505 161.804 L -28.25 161.804 L -28.0363 161.654 L -28.0358 161.654 L -27.8513 161.47 L -27.8509 161.469 L -27.7013 161.255 L -27.701 161.255 L -27.5907 161.019 L -27.5905 161.018 L -27.5229 160.766 L -27.5228 160.765 L -27.5001 160.506 L -27.5 160.505 L -27.5227 160.245 L -27.5228 160.245 L -27.5903 159.992 L -27.5905 159.992 L -27.7007 159.755 L -27.701 159.755 L -27.8506 159.541 L -27.8509 159.541 L -28.0354 159.356 L -28.0358 159.356 L -28.2496 159.206 L -28.25 159.206 L -28.4865 159.096 L -28.487 159.095 L -28.739 159.028 L -28.7395 159.028 L -28.9995 159.005 L -29 159.005 L -29.2599 159.028 L -29.2605 159.028 L -29.5125 159.095 L -29.513 159.095 L -29.7495 159.206 L -29.75 159.206 L -29.9637 159.356 L -29.9642 159.356 L -30.1487 159.54 L -30.1491 159.541 L -30.2987 159.755 L -30.299 159.755 L -30.4093 159.991 L -30.4095 159.992 z  M -200.477 -169.756 L -200.477 -169.755 L -200.5 -169.496 L -200.5 -169.495 L -200.477 -169.235 L -200.477 -169.235 L -200.41 -168.983 L -200.41 -168.982 L -200.299 -168.746 L -200.299 -168.745 L -200.149 -168.531 L -200.149 -168.531 L -199.965 -168.346 L -199.964 -168.346 L -199.75 -168.196 L -199.75 -168.196 L -199.514 -168.086 L -199.513 -168.085 L -199.261 -168.018 L -199.26 -168.018 L -199.001 -167.995 L -199 -167.995 L -198.74 -168.018 L -198.74 -168.018 L -198.488 -168.085 L -198.487 -168.085 L -198.251 -168.196 L -198.25 -168.196 L -198.036 -168.346 L -198.036 -168.346 L -197.851 -168.53 L -197.851 -168.531 L -197.701 -168.745 L -197.701 -168.745 L -197.591 -168.981 L -197.59 -168.982 L -197.523 -169.234 L -197.523 -169.235 L -197.5 -169.494 L -197.5 -169.495 L -197.523 -169.755 L -197.523 -169.755 L -197.59 -170.008 L -197.59 -170.008 L -197.701 -170.245 L -197.701 -170.245 L -197.851 -170.459 L -197.851 -170.459 L -198.035 -170.644 L -198.036 -170.644 L -198.25 -170.794 L -198.25 -170.794 L -198.486 -170.904 L -198.487 -170.905 L -198.739 -170.972 L -198.74 -170.972 L -198.999 -170.995 L -199 -170.995 L -199.26 -170.972 L -199.26 -170.972 L -199.513 -170.905 L -199.513 -170.905 L -199.75 -170.794 L -199.75 -170.794 L -199.964 -170.644 L -199.964 -170.644 L -200.149 -170.46 L -200.149 -170.459 L -200.299 -170.245 L -200.299 -170.245 L -200.409 -170.009 L -200.41 -170.008 z  M 63.779 -182.25 L -356 -182.25 L -356 -182.045 L -356 207.75 L -355.914 207.75 L -193 207.75 L -192.961 207.75 L -118 207.75 L -117.904 207.75 L 64 207.75 L 64 207.545 L 64 -182.25 z  M -143.5 190.8 L -143.477 191.06 L -143.41 191.313 L -143.41 191.313 L -143.299 191.55 L -143.299 191.55 L -143.149 191.764 L -143.149 191.764 L -142.965 191.949 L -142.964 191.949 L -142.75 192.099 L -142.75 192.099 L -142.513 192.209 L -142.513 192.21 L -142.261 192.277 L -142.26 192.277 L -142 192.3 L -142 192.3 L -141.74 192.277 L -141.74 192.277 L -141.487 192.21 L -141.487 192.21 L -141.25 192.099 L -141.25 192.099 L -141.036 191.949 L -141.036 191.949 L -140.851 191.765 L -140.851 191.764 L -140.701 191.55 L -140.701 191.55 L -140.591 191.313 L -140.59 191.313 L -140.523 191.061 L -140.523 191.06 L -140.5 190.8 L -140.5 190.8 L -140.523 190.54 L -140.523 190.54 L -140.59 190.287 L -140.59 190.287 L -140.701 190.05 L -140.701 190.05 L -140.851 189.836 L -140.851 189.836 L -141.035 189.651 L -141.036 189.651 L -141.25 189.501 L -141.25 189.501 L -141.487 189.391 L -141.487 189.39 L -141.739 189.323 L -141.74 189.323 L -142 189.3 L -142 189.3 L -142.26 189.323 L -142.26 189.323 L -142.513 189.39 L -142.513 189.39 L -142.75 189.501 L -142.75 189.501 L -142.964 189.651 L -142.964 189.651 L -143.149 189.835 L -143.149 189.836 L -143.299 190.05 L -143.299 190.05 L -143.409 190.287 L -143.41 190.287 L -143.477 190.539 L -143.477 190.54 L -143.5 190.8 L -143.5 190.8 z  M -200.477 160.244 L -200.477 160.245 L -200.5 160.504 L -200.5 160.505 L -200.477 160.765 L -200.477 160.765 L -200.41 161.017 L -200.41 161.018 L -200.299 161.254 L -200.299 161.255 L -200.149 161.469 L -200.149 161.469 L -199.965 161.654 L -199.964 161.654 L -199.75 161.804 L -199.75 161.804 L -199.514 161.914 L -199.513 161.915 L -199.261 161.982 L -199.26 161.982 L -199.001 162.005 L -199 162.005 L -198.74 161.982 L -198.74 161.982 L -198.488 161.915 L -198.487 161.915 L -198.251 161.804 L -198.25 161.804 L -198.036 161.654 L -198.036 161.654 L -197.851 161.47 L -197.851 161.469 L -197.701 161.255 L -197.701 161.255 L -197.591 161.019 L -197.59 161.018 L -197.523 160.766 L -197.523 160.765 L -197.5 160.506 L -197.5 160.505 L -197.523 160.245 L -197.523 160.245 L -197.59 159.992 L -197.59 159.992 L -197.701 159.755 L -197.701 159.755 L -197.851 159.541 L -197.851 159.541 L -198.035 159.356 L -198.036 159.356 L -198.25 159.206 L -198.25 159.206 L -198.486 159.096 L -198.487 159.095 L -198.739 159.028 L -198.74 159.028 L -198.999 159.005 L -199 159.005 L -199.26 159.028 L -199.26 159.028 L -199.513 159.095 L -199.513 159.095 L -199.75 159.206 L -199.75 159.206 L -199.964 159.356 L -199.964 159.356 L -200.149 159.54 L -200.149 159.541 L -200.299 159.755 L -200.299 159.755 L -200.409 159.991 L -200.41 159.992 z  " fill= "none" stroke="rgb(0,0,255)" stroke-width="0.05mm" />
</svg>
