<?xml version="1.0" standalone="no"?>
<!DOCTYPE svg PUBLIC "-//W3C//DTD SVG 1.1//EN"
"http://www.w3.org/Graphics/SVG/1.1/DTD/svg11.dtd">
<svg width="242mm" height="242mm" viewBox="-248 -25 242 242" xmlns="http://www.w3.org/2000/svg" version = "1.1">
<title>i3-90_assembly.123dx</title>
<desc> made with 123D Design </desc>
<path d="M -115.274 105.928 L -115.274 105.928 L -115.1 105.943 L -115.1 105.943 L -114.927 105.928 L -114.926 105.928 L -114.758 105.883 L -114.758 105.883 L -114.6 105.81 L -114.6 105.809 L -114.458 105.71 L -114.457 105.71 L -114.334 105.587 L -114.334 105.586 L -114.234 105.444 L -114.234 105.443 L -114.16 105.286 L -114.16 105.285 L -114.115 105.118 L -114.115 105.117 L -114.1 104.944 L -114.1 104.943 L -114.115 104.77 L -114.115 104.77 L -114.16 104.602 L -114.16 104.601 L -114.234 104.444 L -114.234 104.443 L -114.334 104.301 L -114.334 104.301 L -114.457 104.178 L -114.457 104.177 L -114.6 104.078 L -114.6 104.077 L -114.758 104.004 L -114.758 104.004 L -114.926 103.959 L -114.926 103.959 L -115.1 103.944 L -115.1 103.943 L -115.273 103.959 L -115.274 103.959 L -115.442 104.004 L -115.442 104.004 L -115.6 104.077 L -115.6 104.077 L -115.742 104.177 L -115.743 104.177 L -115.866 104.3 L -115.866 104.301 L -115.966 104.443 L -115.966 104.443 L -116.039 104.601 L -116.04 104.601 L -116.085 104.769 L -116.085 104.77 L -116.1 104.943 L -116.1 104.943 L -116.085 105.117 L -116.085 105.117 L -116.04 105.285 L -116.04 105.285 L -115.966 105.443 L -115.966 105.443 L -115.866 105.586 L -115.866 105.586 L -115.743 105.709 L -115.743 105.71 L -115.6 105.809 L -115.6 105.809 L -115.442 105.883 L -115.442 105.883 z  M -138.134 104.443 L -138.134 104.444 L -138.06 104.601 L -138.06 104.602 L -138.015 104.77 L -138.015 104.77 L -138 104.943 L -138 104.944 L -138.015 105.117 L -138.015 105.118 L -138.06 105.285 L -138.061 105.286 L -138.134 105.443 L -138.134 105.444 L -138.234 105.586 L -138.234 105.587 L -138.357 105.71 L -138.358 105.71 L -138.5 105.809 L -138.5 105.81 L -138.658 105.883 L -138.658 105.883 L -138.826 105.928 L -138.827 105.928 L -139 105.943 L -139 105.943 L -139.174 105.928 L -139.174 105.928 L -139.342 105.883 L -139.342 105.883 L -139.5 105.809 L -139.5 105.809 L -139.643 105.71 L -139.643 105.709 L -139.766 105.586 L -139.766 105.586 L -139.866 105.443 L -139.866 105.443 L -139.94 105.285 L -139.94 105.285 L -139.985 105.117 L -139.985 105.117 L -140 104.943 L -140 104.943 L -139.985 104.77 L -139.985 104.769 L -139.94 104.601 L -139.939 104.601 L -139.866 104.443 L -139.866 104.443 L -139.766 104.301 L -139.766 104.3 L -139.643 104.177 L -139.642 104.177 L -139.5 104.077 L -139.5 104.077 L -139.342 104.004 L -139.342 104.004 L -139.174 103.959 L -139.173 103.959 L -139 103.943 L -139 103.944 L -138.826 103.959 L -138.826 103.959 L -138.658 104.004 L -138.658 104.004 L -138.5 104.077 L -138.5 104.078 L -138.357 104.177 L -138.357 104.178 L -138.234 104.301 L -138.234 104.301 z  M -30.0491 87.9382 L -30.0486 87.9384 L -29.8755 87.9535 L -29.875 87.9536 L -29.7018 87.9384 L -29.7014 87.9384 L -29.5335 87.8934 L -29.533 87.8933 L -29.3755 87.8198 L -29.375 87.8196 L -29.2326 87.7199 L -29.2322 87.7196 L -29.1093 87.5967 L -29.109 87.5963 L -29.0093 87.454 L -29.009 87.4536 L -28.9355 87.296 L -28.9353 87.2956 L -28.8903 87.1277 L -28.8902 87.1272 L -28.875 86.9541 L -28.875 86.9536 L -28.8901 86.7804 L -28.8902 86.7799 L -28.9352 86.612 L -28.9353 86.6115 L -29.0088 86.454 L -29.009 86.4536 L -29.1087 86.3112 L -29.109 86.3108 L -29.2319 86.1879 L -29.2322 86.1875 L -29.3746 86.0878 L -29.375 86.0875 L -29.5325 86.0141 L -29.533 86.0139 L -29.7009 85.9689 L -29.7014 85.9688 L -29.8745 85.9536 L -29.875 85.9536 L -30.0482 85.9687 L -30.0486 85.9688 L -30.2165 86.0137 L -30.217 86.0139 L -30.3745 86.0873 L -30.375 86.0875 L -30.5174 86.1872 L -30.5178 86.1875 L -30.6407 86.3104 L -30.641 86.3108 L -30.7407 86.4532 L -30.741 86.4536 L -30.8145 86.6111 L -30.8147 86.6115 L -30.8597 86.7794 L -30.8598 86.7799 L -30.875 86.9531 L -30.875 86.9536 L -30.8599 87.1267 L -30.8598 87.1272 L -30.8148 87.2951 L -30.8147 87.2956 L -30.7412 87.4531 L -30.741 87.4536 L -30.6413 87.5959 L -30.641 87.5963 L -30.5181 87.7193 L -30.5178 87.7196 L -30.3754 87.8193 L -30.375 87.8196 L -30.2175 87.893 L -30.217 87.8933 z  M -224.86 128.329 L -224.86 128.33 L -224.875 128.503 L -224.875 128.504 L -224.86 128.677 L -224.86 128.677 L -224.815 128.845 L -224.815 128.846 L -224.741 129.003 L -224.741 129.004 L -224.641 129.146 L -224.641 129.146 L -224.518 129.269 L -224.518 129.27 L -224.375 129.369 L -224.375 129.37 L -224.217 129.443 L -224.217 129.443 L -224.049 129.488 L -224.049 129.488 L -223.876 129.504 L -223.875 129.504 L -223.702 129.488 L -223.701 129.488 L -223.533 129.443 L -223.533 129.443 L -223.375 129.37 L -223.375 129.37 L -223.233 129.27 L -223.232 129.27 L -223.109 129.147 L -223.109 129.146 L -223.009 129.004 L -223.009 129.004 L -222.936 128.846 L -222.935 128.846 L -222.89 128.678 L -222.89 128.677 L -222.875 128.504 L -222.875 128.504 L -222.89 128.33 L -222.89 128.33 L -222.935 128.162 L -222.935 128.162 L -223.009 128.004 L -223.009 128.004 L -223.109 127.861 L -223.109 127.861 L -223.232 127.738 L -223.232 127.738 L -223.375 127.638 L -223.375 127.638 L -223.533 127.564 L -223.533 127.564 L -223.701 127.519 L -223.701 127.519 L -223.875 127.504 L -223.875 127.504 L -224.048 127.519 L -224.049 127.519 L -224.217 127.564 L -224.217 127.564 L -224.375 127.637 L -224.375 127.638 L -224.517 127.737 L -224.518 127.738 L -224.641 127.86 L -224.641 127.861 L -224.741 128.003 L -224.741 128.004 L -224.814 128.161 L -224.815 128.162 z  M -23.0228 198.24 L -23.0227 198.24 L -23 198.5 L -23.0227 198.76 L -23.0228 198.76 L -23.0229 198.761 L -23.0905 199.013 L -23.0907 199.014 L -23.201 199.25 L -23.2013 199.25 L -23.3509 199.464 L -23.3513 199.465 L -23.5358 199.649 L -23.5363 199.649 L -23.75 199.799 L -23.7505 199.799 L -23.987 199.91 L -23.9875 199.91 L -24.2395 199.977 L -24.2401 199.977 L -24.5 200 L -24.5005 200 L -24.7605 199.977 L -24.761 199.977 L -25.013 199.91 L -25.0135 199.909 L -25.25 199.799 L -25.2505 199.799 L -25.4642 199.649 L -25.4646 199.649 L -25.6491 199.464 L -25.6494 199.464 L -25.799 199.25 L -25.7993 199.249 L -25.9095 199.013 L -25.9097 199.012 L -25.9772 198.76 L -25.9773 198.76 L -26 198.5 L -26 198.499 L -25.9772 198.24 L -25.9771 198.239 L -25.9095 197.987 L -25.9093 197.986 L -25.799 197.75 L -25.7987 197.75 L -25.6491 197.536 L -25.6487 197.535 L -25.4642 197.351 L -25.4637 197.351 L -25.25 197.201 L -25.2495 197.201 L -25.013 197.09 L -25.0125 197.09 L -24.7605 197.023 L -24.7599 197.023 L -24.5 197 L -24.4995 197 L -24.2395 197.023 L -24.239 197.023 L -23.987 197.09 L -23.9865 197.091 L -23.75 197.201 L -23.7495 197.201 L -23.5358 197.351 L -23.5354 197.351 L -23.3509 197.536 L -23.3506 197.536 L -23.201 197.75 L -23.2007 197.75 L -23.0905 197.987 L -23.0903 197.987 z  M -224.86 63.3294 L -224.86 63.3299 L -224.875 63.5031 L -224.875 63.5036 L -224.86 63.6767 L -224.86 63.6772 L -224.815 63.8451 L -224.815 63.8456 L -224.741 64.0031 L -224.741 64.0036 L -224.641 64.1459 L -224.641 64.1464 L -224.518 64.2693 L -224.518 64.2696 L -224.375 64.3693 L -224.375 64.3696 L -224.217 64.443 L -224.217 64.4433 L -224.049 64.4882 L -224.049 64.4884 L -223.876 64.5035 L -223.875 64.5036 L -223.702 64.4884 L -223.701 64.4884 L -223.533 64.4434 L -223.533 64.4433 L -223.375 64.3698 L -223.375 64.3696 L -223.233 64.2699 L -223.232 64.2696 L -223.109 64.1467 L -223.109 64.1464 L -223.009 64.004 L -223.009 64.0036 L -222.936 63.846 L -222.935 63.8456 L -222.89 63.6777 L -222.89 63.6772 L -222.875 63.5041 L -222.875 63.5036 L -222.89 63.3304 L -222.89 63.3299 L -222.935 63.162 L -222.935 63.1615 L -223.009 63.004 L -223.009 63.0036 L -223.109 62.8612 L -223.109 62.8608 L -223.232 62.7379 L -223.232 62.7375 L -223.375 62.6378 L -223.375 62.6375 L -223.533 62.5641 L -223.533 62.5639 L -223.701 62.5189 L -223.701 62.5188 L -223.875 62.5036 L -223.875 62.5036 L -224.048 62.5187 L -224.049 62.5188 L -224.217 62.5637 L -224.217 62.5639 L -224.375 62.6373 L -224.375 62.6375 L -224.517 62.7372 L -224.518 62.7375 L -224.641 62.8604 L -224.641 62.8608 L -224.741 63.0032 L -224.741 63.0036 L -224.814 63.1611 L -224.815 63.1615 z  M -54.8597 86.7794 L -54.8598 86.7799 L -54.875 86.9531 L -54.875 86.9536 L -54.8599 87.1267 L -54.8598 87.1272 L -54.8148 87.2951 L -54.8147 87.2956 L -54.7412 87.4531 L -54.741 87.4536 L -54.6413 87.5959 L -54.641 87.5963 L -54.5181 87.7193 L -54.5178 87.7196 L -54.3754 87.8193 L -54.375 87.8196 L -54.2175 87.893 L -54.217 87.8933 L -54.0491 87.9382 L -54.0486 87.9384 L -53.8755 87.9535 L -53.875 87.9536 L -53.7018 87.9384 L -53.7014 87.9384 L -53.5335 87.8934 L -53.533 87.8933 L -53.3755 87.8198 L -53.375 87.8196 L -53.2326 87.7199 L -53.2322 87.7196 L -53.1093 87.5967 L -53.109 87.5963 L -53.0093 87.454 L -53.009 87.4536 L -52.9355 87.296 L -52.9353 87.2956 L -52.8903 87.1277 L -52.8902 87.1272 L -52.875 86.9541 L -52.875 86.9536 L -52.8901 86.7804 L -52.8902 86.7799 L -52.9352 86.612 L -52.9353 86.6115 L -53.0088 86.454 L -53.009 86.4536 L -53.1087 86.3112 L -53.109 86.3108 L -53.2319 86.1879 L -53.2322 86.1875 L -53.3746 86.0878 L -53.375 86.0875 L -53.5325 86.0141 L -53.533 86.0139 L -53.7009 85.9689 L -53.7014 85.9688 L -53.8745 85.9536 L -53.875 85.9536 L -54.0482 85.9687 L -54.0486 85.9688 L -54.2165 86.0137 L -54.217 86.0139 L -54.3745 86.0873 L -54.375 86.0875 L -54.5174 86.1872 L -54.5178 86.1875 L -54.6407 86.3104 L -54.641 86.3108 L -54.7407 86.4532 L -54.741 86.4536 L -54.8145 86.6111 L -54.8147 86.6115 z  M -200.86 128.329 L -200.86 128.33 L -200.875 128.503 L -200.875 128.504 L -200.86 128.677 L -200.86 128.677 L -200.815 128.845 L -200.815 128.846 L -200.741 129.003 L -200.741 129.004 L -200.641 129.146 L -200.641 129.146 L -200.518 129.269 L -200.518 129.27 L -200.375 129.369 L -200.375 129.37 L -200.217 129.443 L -200.217 129.443 L -200.049 129.488 L -200.049 129.488 L -199.875 129.504 L -199.875 129.504 L -199.702 129.488 L -199.701 129.488 L -199.533 129.443 L -199.533 129.443 L -199.375 129.37 L -199.375 129.37 L -199.233 129.27 L -199.232 129.27 L -199.109 129.147 L -199.109 129.146 L -199.009 129.004 L -199.009 129.004 L -198.936 128.846 L -198.935 128.846 L -198.89 128.678 L -198.89 128.677 L -198.875 128.504 L -198.875 128.504 L -198.89 128.33 L -198.89 128.33 L -198.935 128.162 L -198.935 128.162 L -199.009 128.004 L -199.009 128.004 L -199.109 127.861 L -199.109 127.861 L -199.232 127.738 L -199.232 127.738 L -199.375 127.638 L -199.375 127.638 L -199.533 127.564 L -199.533 127.564 L -199.701 127.519 L -199.701 127.519 L -199.874 127.504 L -199.875 127.504 L -200.048 127.519 L -200.049 127.519 L -200.217 127.564 L -200.217 127.564 L -200.375 127.637 L -200.375 127.638 L -200.517 127.737 L -200.518 127.738 L -200.641 127.86 L -200.641 127.861 L -200.741 128.003 L -200.741 128.004 L -200.814 128.161 L -200.815 128.162 z  M -224.86 45.3294 L -224.86 45.3299 L -224.875 45.5031 L -224.875 45.5036 L -224.86 45.6767 L -224.86 45.6772 L -224.815 45.8451 L -224.815 45.8456 L -224.741 46.0031 L -224.741 46.0036 L -224.641 46.1459 L -224.641 46.1464 L -224.518 46.2693 L -224.518 46.2696 L -224.375 46.3693 L -224.375 46.3696 L -224.217 46.443 L -224.217 46.4433 L -224.049 46.4882 L -224.049 46.4884 L -223.876 46.5035 L -223.875 46.5036 L -223.702 46.4884 L -223.701 46.4884 L -223.533 46.4434 L -223.533 46.4433 L -223.375 46.3698 L -223.375 46.3696 L -223.233 46.2699 L -223.232 46.2696 L -223.109 46.1467 L -223.109 46.1464 L -223.009 46.004 L -223.009 46.0036 L -222.936 45.846 L -222.935 45.8456 L -222.89 45.6777 L -222.89 45.6772 L -222.875 45.5041 L -222.875 45.5036 L -222.89 45.3304 L -222.89 45.3299 L -222.935 45.162 L -222.935 45.1615 L -223.009 45.004 L -223.009 45.0036 L -223.109 44.8612 L -223.109 44.8608 L -223.232 44.7379 L -223.232 44.7375 L -223.375 44.6378 L -223.375 44.6375 L -223.533 44.5641 L -223.533 44.5639 L -223.701 44.5189 L -223.701 44.5188 L -223.875 44.5036 L -223.875 44.5036 L -224.048 44.5187 L -224.049 44.5188 L -224.217 44.5637 L -224.217 44.5639 L -224.375 44.6373 L -224.375 44.6375 L -224.517 44.7372 L -224.518 44.7375 L -224.641 44.8604 L -224.641 44.8608 L -224.741 45.0032 L -224.741 45.0036 L -224.814 45.1611 L -224.815 45.1615 z  M -24.761 -5.02293 L -24.7605 -5.02279 L -24.5005 -5.00005 L -24.5 -5 L -24.2401 -5.02274 L -24.2395 -5.02279 L -23.9875 -5.09032 L -23.987 -5.09046 L -23.7505 -5.20073 L -23.75 -5.20096 L -23.5363 -5.35062 L -23.5358 -5.35093 L -23.3513 -5.53543 L -23.3509 -5.53582 L -23.2013 -5.74955 L -23.201 -5.75 L -23.0907 -5.98647 L -23.0905 -5.98697 L -23.0229 -6.239 L -23.0228 -6.23953 L -23 -6.49945 L -23 -6.5 L -23.0227 -6.75992 L -23.0228 -6.76047 L -23.0903 -7.0125 L -23.0905 -7.01303 L -23.2007 -7.2495 L -23.201 -7.25 L -23.3506 -7.46373 L -23.3509 -7.46418 L -23.5354 -7.64868 L -23.5358 -7.64907 L -23.7495 -7.79872 L -23.75 -7.79904 L -23.9865 -7.90931 L -23.987 -7.90954 L -24.239 -7.97707 L -24.2395 -7.97721 L -24.4995 -7.99995 L -24.5 -8 L -24.7599 -7.97726 L -24.7605 -7.97721 L -25.0125 -7.90968 L -25.013 -7.90954 L -25.2495 -7.79927 L -25.25 -7.79904 L -25.4637 -7.64938 L -25.4642 -7.64907 L -25.6487 -7.46457 L -25.6491 -7.46418 L -25.7987 -7.25045 L -25.799 -7.25 L -25.9093 -7.01353 L -25.9095 -7.01303 L -25.9771 -6.761 L -25.9772 -6.76047 L -26 -6.50055 L -26 -6.5 L -25.9773 -6.24008 L -25.9772 -6.23953 L -25.9097 -5.9875 L -25.9095 -5.98697 L -25.7993 -5.7505 L -25.799 -5.75 L -25.6494 -5.53627 L -25.6491 -5.53582 L -25.4646 -5.35132 L -25.4642 -5.35093 L -25.2505 -5.20128 L -25.25 -5.20096 L -25.0135 -5.09069 L -25.013 -5.09046 z  M -229.24 199.977 L -229.24 199.977 L -228.988 199.91 L -228.987 199.91 L -228.75 199.799 L -228.75 199.799 L -228.536 199.649 L -228.536 199.649 L -228.351 199.465 L -228.351 199.464 L -228.201 199.25 L -228.201 199.25 L -228.091 199.014 L -228.09 199.013 L -228.023 198.761 L -228.023 198.76 L -228 198.501 L -228 198.5 L -228.023 198.24 L -228.023 198.24 L -228.09 197.987 L -228.09 197.987 L -228.201 197.75 L -228.201 197.75 L -228.351 197.536 L -228.351 197.536 L -228.535 197.351 L -228.536 197.351 L -228.75 197.201 L -228.75 197.201 L -228.986 197.091 L -228.987 197.09 L -229.239 197.023 L -229.24 197.023 L -229.499 197 L -229.5 197 L -229.76 197.023 L -229.76 197.023 L -230.012 197.09 L -230.013 197.09 L -230.25 197.201 L -230.25 197.201 L -230.464 197.351 L -230.464 197.351 L -230.649 197.535 L -230.649 197.536 L -230.799 197.75 L -230.799 197.75 L -230.909 197.986 L -230.91 197.987 L -230.977 198.239 L -230.977 198.24 L -231 198.499 L -231 198.5 L -230.977 198.76 L -230.977 198.76 L -230.91 199.012 L -230.91 199.013 L -230.799 199.249 L -230.799 199.25 L -230.649 199.464 L -230.649 199.464 L -230.465 199.649 L -230.464 199.649 L -230.25 199.799 L -230.25 199.799 L -230.014 199.909 L -230.013 199.91 L -229.761 199.977 L -229.76 199.977 L -229.76 199.977 L -229.5 200 z  M -237 80 L -236.977 80.0012 L -193 82.1945 L -193 109.791 L -193 109.805 L -193.023 109.807 L -237 112 L -237 112.028 L -237 165 L -222.008 165 L -222 165 L -222.008 165.01 L -237 183.75 L -237 183.762 L -237 206 L -236.985 206 L -209.143 206 L -162.025 140.035 L -162 140 L -112.026 140 L -112 140 L -111.963 140.035 L -41.2857 206 L -41.2729 206 L -17 206 L -17 205.987 L -17 180.5 L -61.9763 140.021 L -62 140 L -61.9763 139.988 L -17 117.5 L -17 117.477 L -17 74.5 L -61.9763 52.0118 L -62 52 L -61.9763 51.9787 L -17 11.5 L -17 11.4866 L -17 -14 L -17.0128 -14 L -41.2857 -14 L -111.963 51.9653 L -112 52 L -161.974 52 L -162 52 L -162.025 51.9653 L -209.143 -14 L -209.158 -14 L -237 -14 L -237 -13.9883 L -237 8.25 L -222.008 26.9901 L -222 27 L -222.008 27 L -237 27 L -237 27.0279 z  M -114.115 87.1171 L -114.115 87.1176 L -114.16 87.2855 L -114.16 87.2859 L -114.234 87.4435 L -114.234 87.4439 L -114.334 87.5863 L -114.334 87.5866 L -114.457 87.7095 L -114.458 87.7098 L -114.6 87.8095 L -114.6 87.8097 L -114.758 87.8832 L -114.758 87.8833 L -114.926 87.9283 L -114.927 87.9283 L -115.1 87.9435 L -115.1 87.9434 L -115.274 87.9283 L -115.274 87.9282 L -115.442 87.8832 L -115.442 87.883 L -115.6 87.8095 L -115.6 87.8092 L -115.743 87.7095 L -115.743 87.7092 L -115.866 87.5863 L -115.866 87.5859 L -115.966 87.4435 L -115.966 87.443 L -116.04 87.2855 L -116.04 87.285 L -116.085 87.1171 L -116.085 87.1166 L -116.1 86.9435 L -116.1 86.943 L -116.085 86.7698 L -116.085 86.7694 L -116.04 86.6014 L -116.039 86.601 L -115.966 86.4435 L -115.966 86.4431 L -115.866 86.3007 L -115.866 86.3003 L -115.743 86.1774 L -115.742 86.1771 L -115.6 86.0774 L -115.6 86.0772 L -115.442 86.0038 L -115.442 86.0036 L -115.274 85.9587 L -115.273 85.9586 L -115.1 85.9435 L -115.1 85.9435 L -114.926 85.9587 L -114.926 85.9588 L -114.758 86.0038 L -114.758 86.004 L -114.6 86.0774 L -114.6 86.0777 L -114.457 86.1774 L -114.457 86.1777 L -114.334 86.3007 L -114.334 86.3011 L -114.234 86.4435 L -114.234 86.4439 L -114.16 86.6014 L -114.16 86.6019 L -114.115 86.7698 L -114.115 86.7703 L -114.1 86.9435 L -114.1 86.9439 z  M -200.86 45.3294 L -200.86 45.3299 L -200.875 45.5031 L -200.875 45.5036 L -200.86 45.6767 L -200.86 45.6772 L -200.815 45.8451 L -200.815 45.8456 L -200.741 46.0031 L -200.741 46.0036 L -200.641 46.1459 L -200.641 46.1464 L -200.518 46.2693 L -200.518 46.2696 L -200.375 46.3693 L -200.375 46.3696 L -200.217 46.443 L -200.217 46.4433 L -200.049 46.4882 L -200.049 46.4884 L -199.875 46.5035 L -199.875 46.5036 L -199.702 46.4884 L -199.701 46.4884 L -199.533 46.4434 L -199.533 46.4433 L -199.375 46.3698 L -199.375 46.3696 L -199.233 46.2699 L -199.232 46.2696 L -199.109 46.1467 L -199.109 46.1464 L -199.009 46.004 L -199.009 46.0036 L -198.936 45.846 L -198.935 45.8456 L -198.89 45.6777 L -198.89 45.6772 L -198.875 45.5041 L -198.875 45.5036 L -198.89 45.3304 L -198.89 45.3299 L -198.935 45.162 L -198.935 45.1615 L -199.009 45.004 L -199.009 45.0036 L -199.109 44.8612 L -199.109 44.8608 L -199.232 44.7379 L -199.232 44.7375 L -199.375 44.6378 L -199.375 44.6375 L -199.533 44.5641 L -199.533 44.5639 L -199.701 44.5189 L -199.701 44.5188 L -199.874 44.5036 L -199.875 44.5036 L -200.048 44.5187 L -200.049 44.5188 L -200.217 44.5637 L -200.217 44.5639 L -200.375 44.6373 L -200.375 44.6375 L -200.517 44.7372 L -200.518 44.7375 L -200.641 44.8604 L -200.641 44.8608 L -200.741 45.0032 L -200.741 45.0036 L -200.814 45.1611 L -200.815 45.1615 z  M -138.015 87.1171 L -138.015 87.1176 L -138.06 87.2855 L -138.061 87.2859 L -138.134 87.4435 L -138.134 87.4439 L -138.234 87.5863 L -138.234 87.5866 L -138.357 87.7095 L -138.358 87.7098 L -138.5 87.8095 L -138.5 87.8097 L -138.658 87.8832 L -138.658 87.8833 L -138.826 87.9283 L -138.827 87.9283 L -139 87.9435 L -139 87.9434 L -139.174 87.9283 L -139.174 87.9282 L -139.342 87.8832 L -139.342 87.883 L -139.5 87.8095 L -139.5 87.8092 L -139.643 87.7095 L -139.643 87.7092 L -139.766 87.5863 L -139.766 87.5859 L -139.866 87.4435 L -139.866 87.443 L -139.94 87.2855 L -139.94 87.285 L -139.985 87.1171 L -139.985 87.1166 L -140 86.9435 L -140 86.943 L -139.985 86.7698 L -139.985 86.7694 L -139.94 86.6014 L -139.939 86.601 L -139.866 86.4435 L -139.866 86.4431 L -139.766 86.3007 L -139.766 86.3003 L -139.643 86.1774 L -139.642 86.1771 L -139.5 86.0774 L -139.5 86.0772 L -139.342 86.0038 L -139.342 86.0036 L -139.174 85.9587 L -139.173 85.9586 L -139 85.9435 L -139 85.9435 L -138.826 85.9587 L -138.826 85.9588 L -138.658 86.0038 L -138.658 86.004 L -138.5 86.0774 L -138.5 86.0777 L -138.357 86.1774 L -138.357 86.1777 L -138.234 86.3007 L -138.234 86.3011 L -138.134 86.4435 L -138.134 86.4439 L -138.06 86.6014 L -138.06 86.6019 L -138.015 86.7698 L -138.015 86.7703 L -138 86.9435 L -138 86.9439 z  M -200.86 146.329 L -200.86 146.33 L -200.875 146.503 L -200.875 146.504 L -200.86 146.677 L -200.86 146.677 L -200.815 146.845 L -200.815 146.846 L -200.741 147.003 L -200.741 147.004 L -200.641 147.146 L -200.641 147.146 L -200.518 147.269 L -200.518 147.27 L -200.375 147.369 L -200.375 147.37 L -200.217 147.443 L -200.217 147.443 L -200.049 147.488 L -200.049 147.488 L -199.875 147.504 L -199.875 147.504 L -199.702 147.488 L -199.701 147.488 L -199.533 147.443 L -199.533 147.443 L -199.375 147.37 L -199.375 147.37 L -199.233 147.27 L -199.232 147.27 L -199.109 147.147 L -199.109 147.146 L -199.009 147.004 L -199.009 147.004 L -198.936 146.846 L -198.935 146.846 L -198.89 146.678 L -198.89 146.677 L -198.875 146.504 L -198.875 146.504 L -198.89 146.33 L -198.89 146.33 L -198.935 146.162 L -198.935 146.162 L -199.009 146.004 L -199.009 146.004 L -199.109 145.861 L -199.109 145.861 L -199.232 145.738 L -199.232 145.738 L -199.375 145.638 L -199.375 145.638 L -199.533 145.564 L -199.533 145.564 L -199.701 145.519 L -199.701 145.519 L -199.874 145.504 L -199.875 145.504 L -200.048 145.519 L -200.049 145.519 L -200.217 145.564 L -200.217 145.564 L -200.375 145.637 L -200.375 145.638 L -200.517 145.737 L -200.518 145.738 L -200.641 145.86 L -200.641 145.861 L -200.741 146.003 L -200.741 146.004 L -200.814 146.161 L -200.815 146.162 z  M -30.8597 104.779 L -30.8598 104.78 L -30.875 104.953 L -30.875 104.954 L -30.8599 105.127 L -30.8598 105.127 L -30.8148 105.295 L -30.8147 105.296 L -30.7412 105.453 L -30.741 105.454 L -30.6413 105.596 L -30.641 105.596 L -30.5181 105.719 L -30.5178 105.72 L -30.3754 105.819 L -30.375 105.82 L -30.2175 105.893 L -30.217 105.893 L -30.0491 105.938 L -30.0486 105.938 L -29.8755 105.954 L -29.875 105.954 L -29.7018 105.938 L -29.7014 105.938 L -29.5335 105.893 L -29.533 105.893 L -29.3755 105.82 L -29.375 105.82 L -29.2326 105.72 L -29.2322 105.72 L -29.1093 105.597 L -29.109 105.596 L -29.0093 105.454 L -29.009 105.454 L -28.9355 105.296 L -28.9353 105.296 L -28.8903 105.128 L -28.8902 105.127 L -28.875 104.954 L -28.875 104.954 L -28.8901 104.78 L -28.8902 104.78 L -28.9352 104.612 L -28.9353 104.612 L -29.0088 104.454 L -29.009 104.454 L -29.1087 104.311 L -29.109 104.311 L -29.2319 104.188 L -29.2322 104.188 L -29.3746 104.088 L -29.375 104.088 L -29.5325 104.014 L -29.533 104.014 L -29.7009 103.969 L -29.7014 103.969 L -29.8745 103.954 L -29.875 103.954 L -30.0482 103.969 L -30.0486 103.969 L -30.2165 104.014 L -30.217 104.014 L -30.3745 104.087 L -30.375 104.088 L -30.5174 104.187 L -30.5178 104.188 L -30.6407 104.31 L -30.641 104.311 L -30.7407 104.453 L -30.741 104.454 L -30.8145 104.611 L -30.8147 104.612 z  M -200.86 63.3294 L -200.86 63.3299 L -200.875 63.5031 L -200.875 63.5036 L -200.86 63.6767 L -200.86 63.6772 L -200.815 63.8451 L -200.815 63.8456 L -200.741 64.0031 L -200.741 64.0036 L -200.641 64.1459 L -200.641 64.1464 L -200.518 64.2693 L -200.518 64.2696 L -200.375 64.3693 L -200.375 64.3696 L -200.217 64.443 L -200.217 64.4433 L -200.049 64.4882 L -200.049 64.4884 L -199.875 64.5035 L -199.875 64.5036 L -199.702 64.4884 L -199.701 64.4884 L -199.533 64.4434 L -199.533 64.4433 L -199.375 64.3698 L -199.375 64.3696 L -199.233 64.2699 L -199.232 64.2696 L -199.109 64.1467 L -199.109 64.1464 L -199.009 64.004 L -199.009 64.0036 L -198.936 63.846 L -198.935 63.8456 L -198.89 63.6777 L -198.89 63.6772 L -198.875 63.5041 L -198.875 63.5036 L -198.89 63.3304 L -198.89 63.3299 L -198.935 63.162 L -198.935 63.1615 L -199.009 63.004 L -199.009 63.0036 L -199.109 62.8612 L -199.109 62.8608 L -199.232 62.7379 L -199.232 62.7375 L -199.375 62.6378 L -199.375 62.6375 L -199.533 62.5641 L -199.533 62.5639 L -199.701 62.5189 L -199.701 62.5188 L -199.874 62.5036 L -199.875 62.5036 L -200.048 62.5187 L -200.049 62.5188 L -200.217 62.5637 L -200.217 62.5639 L -200.375 62.6373 L -200.375 62.6375 L -200.517 62.7372 L -200.518 62.7375 L -200.641 62.8604 L -200.641 62.8608 L -200.741 63.0032 L -200.741 63.0036 L -200.814 63.1611 L -200.815 63.1615 z  M -224.86 146.329 L -224.86 146.33 L -224.875 146.503 L -224.875 146.504 L -224.86 146.677 L -224.86 146.677 L -224.815 146.845 L -224.815 146.846 L -224.741 147.003 L -224.741 147.004 L -224.641 147.146 L -224.641 147.146 L -224.518 147.269 L -224.518 147.27 L -224.375 147.369 L -224.375 147.37 L -224.217 147.443 L -224.217 147.443 L -224.049 147.488 L -224.049 147.488 L -223.876 147.504 L -223.875 147.504 L -223.702 147.488 L -223.701 147.488 L -223.533 147.443 L -223.533 147.443 L -223.375 147.37 L -223.375 147.37 L -223.233 147.27 L -223.232 147.27 L -223.109 147.147 L -223.109 147.146 L -223.009 147.004 L -223.009 147.004 L -222.936 146.846 L -222.935 146.846 L -222.89 146.678 L -222.89 146.677 L -222.875 146.504 L -222.875 146.504 L -222.89 146.33 L -222.89 146.33 L -222.935 146.162 L -222.935 146.162 L -223.009 146.004 L -223.009 146.004 L -223.109 145.861 L -223.109 145.861 L -223.232 145.738 L -223.232 145.738 L -223.375 145.638 L -223.375 145.638 L -223.533 145.564 L -223.533 145.564 L -223.701 145.519 L -223.701 145.519 L -223.875 145.504 L -223.875 145.504 L -224.048 145.519 L -224.049 145.519 L -224.217 145.564 L -224.217 145.564 L -224.375 145.637 L -224.375 145.638 L -224.517 145.737 L -224.518 145.738 L -224.641 145.86 L -224.641 145.861 L -224.741 146.003 L -224.741 146.004 L -224.814 146.161 L -224.815 146.162 z  M -230.977 -6.24008 L -230.977 -6.23953 L -230.91 -5.9875 L -230.91 -5.98697 L -230.799 -5.7505 L -230.799 -5.75 L -230.649 -5.53627 L -230.649 -5.53582 L -230.465 -5.35132 L -230.464 -5.35093 L -230.25 -5.20128 L -230.25 -5.20096 L -230.014 -5.09069 L -230.013 -5.09046 L -229.761 -5.02293 L -229.76 -5.02279 L -229.501 -5.00005 L -229.5 -5 L -229.24 -5.02274 L -229.24 -5.02279 L -228.988 -5.09032 L -228.987 -5.09046 L -228.75 -5.20073 L -228.75 -5.20096 L -228.536 -5.35062 L -228.536 -5.35093 L -228.351 -5.53543 L -228.351 -5.53582 L -228.201 -5.74955 L -228.201 -5.75 L -228.091 -5.98647 L -228.09 -5.98697 L -228.023 -6.239 L -228.023 -6.23953 L -228 -6.49945 L -228 -6.5 L -228.023 -6.75992 L -228.023 -6.76047 L -228.09 -7.0125 L -228.09 -7.01303 L -228.201 -7.2495 L -228.201 -7.25 L -228.351 -7.46373 L -228.351 -7.46418 L -228.535 -7.64868 L -228.536 -7.64907 L -228.75 -7.79872 L -228.75 -7.79904 L -228.986 -7.90931 L -228.987 -7.90954 L -229.239 -7.97707 L -229.24 -7.97721 L -229.499 -7.99995 L -229.5 -8 L -229.76 -7.97726 L -229.76 -7.97721 L -230.012 -7.90968 L -230.013 -7.90954 L -230.25 -7.79927 L -230.25 -7.79904 L -230.464 -7.64938 L -230.464 -7.64907 L -230.649 -7.46457 L -230.649 -7.46418 L -230.799 -7.25045 L -230.799 -7.25 L -230.909 -7.01353 L -230.91 -7.01303 L -230.977 -6.761 L -230.977 -6.76047 L -230.977 -6.75992 L -231 -6.5 z  M -54.8597 104.779 L -54.8598 104.78 L -54.875 104.953 L -54.875 104.954 L -54.8599 105.127 L -54.8598 105.127 L -54.8148 105.295 L -54.8147 105.296 L -54.7412 105.453 L -54.741 105.454 L -54.6413 105.596 L -54.641 105.596 L -54.5181 105.719 L -54.5178 105.72 L -54.3754 105.819 L -54.375 105.82 L -54.2175 105.893 L -54.217 105.893 L -54.0491 105.938 L -54.0486 105.938 L -53.8755 105.954 L -53.875 105.954 L -53.7018 105.938 L -53.7014 105.938 L -53.5335 105.893 L -53.533 105.893 L -53.3755 105.82 L -53.375 105.82 L -53.2326 105.72 L -53.2322 105.72 L -53.1093 105.597 L -53.109 105.596 L -53.0093 105.454 L -53.009 105.454 L -52.9355 105.296 L -52.9353 105.296 L -52.8903 105.128 L -52.8902 105.127 L -52.875 104.954 L -52.875 104.954 L -52.8901 104.78 L -52.8902 104.78 L -52.9352 104.612 L -52.9353 104.612 L -53.0088 104.454 L -53.009 104.454 L -53.1087 104.311 L -53.109 104.311 L -53.2319 104.188 L -53.2322 104.188 L -53.3746 104.088 L -53.375 104.088 L -53.5325 104.014 L -53.533 104.014 L -53.7009 103.969 L -53.7014 103.969 L -53.8745 103.954 L -53.875 103.954 L -54.0482 103.969 L -54.0486 103.969 L -54.2165 104.014 L -54.217 104.014 L -54.3745 104.087 L -54.375 104.088 L -54.5174 104.187 L -54.5178 104.188 L -54.6407 104.31 L -54.641 104.311 L -54.7407 104.453 L -54.741 104.454 L -54.8145 104.611 L -54.8147 104.612 z  " fill= "none" stroke="rgb(0,0,255)" stroke-width="0.05mm" />
</svg>
