<?xml version="1.0" standalone="no"?>
<!DOCTYPE svg PUBLIC "-//W3C//DTD SVG 1.1//EN"
"http://www.w3.org/Graphics/SVG/1.1/DTD/svg11.dtd">
<svg width="462mm" height="412.5mm" viewBox="-377 -168 462 412.5" xmlns="http://www.w3.org/2000/svg" version = "1.1">
<title>i3-90_assembly.123dx</title>
<desc> made with 123D Design </desc>
<path d="M 47.25 192.051 L 47.2505 192.051 L 47.487 191.94 L 47.4875 191.94 L 47.7395 191.873 L 47.7401 191.873 L 48 191.85 L 48.0005 191.85 L 48.2605 191.873 L 48.261 191.873 L 48.513 191.94 L 48.5135 191.941 L 48.75 192.051 L 48.7504 192.051 L 48.9642 192.201 L 48.9646 192.201 L 49.1491 192.386 L 49.1494 192.386 L 49.299 192.6 L 49.2993 192.6 L 49.4095 192.837 L 49.4097 192.838 L 49.4772 193.09 L 49.4999 193.349 L 49.5 193.35 L 49.5 193.35 L 49.5 193.362 L 49.5 216.35 L 49.5 216.35 L 49.4999 216.351 L 49.4772 216.61 L 49.4771 216.611 L 49.4095 216.863 L 49.4093 216.864 L 49.299 217.1 L 49.2987 217.1 L 49.1491 217.314 L 49.1487 217.315 L 48.9642 217.499 L 48.9637 217.499 L 48.75 217.649 L 48.7495 217.649 L 48.513 217.76 L 48.5125 217.76 L 48.2605 217.827 L 48.2599 217.827 L 48 217.85 L 47.9994 217.85 L 47.7395 217.827 L 47.739 217.827 L 47.487 217.76 L 47.4865 217.759 L 47.25 217.649 L 47.2495 217.649 L 47.0358 217.499 L 47.0354 217.499 L 46.8509 217.314 L 46.8506 217.314 L 46.7009 217.1 L 46.7007 217.099 L 46.5904 216.863 L 46.5903 216.862 L 46.5228 216.61 L 46.5 216.351 L 46.5 216.35 L 46.5 216.35 L 46.5 216.338 L 46.5 193.35 L 46.5 193.35 L 46.5 193.349 L 46.5228 193.09 L 46.5229 193.089 L 46.5904 192.837 L 46.5907 192.836 L 46.7009 192.6 L 46.7013 192.6 L 46.8509 192.386 L 46.8513 192.385 L 47.0358 192.201 L 47.0363 192.201 z  M -280.84 -125.663 L -280.84 -125.662 L -280.773 -125.41 L -280.75 -125.151 L -280.75 -125.15 L -280.75 -125.15 L -280.75 -125.138 L -280.75 -102.15 L -280.75 -102.15 L -280.75 -102.149 L -280.773 -101.89 L -280.773 -101.889 L -280.84 -101.637 L -280.841 -101.636 L -280.951 -101.4 L -280.951 -101.4 L -281.101 -101.186 L -281.101 -101.185 L -281.286 -101.001 L -281.286 -101.001 L -281.5 -100.851 L -281.501 -100.851 L -281.737 -100.74 L -281.738 -100.74 L -281.99 -100.673 L -281.99 -100.673 L -282.25 -100.65 L -282.251 -100.65 L -282.51 -100.673 L -282.511 -100.673 L -282.763 -100.74 L -282.764 -100.741 L -283 -100.851 L -283 -100.851 L -283.214 -101.001 L -283.215 -101.001 L -283.399 -101.186 L -283.399 -101.186 L -283.549 -101.4 L -283.549 -101.4 L -283.66 -101.637 L -283.66 -101.638 L -283.727 -101.89 L -283.75 -102.149 L -283.75 -102.15 L -283.75 -102.15 L -283.75 -102.162 L -283.75 -125.15 L -283.75 -125.15 L -283.75 -125.151 L -283.727 -125.41 L -283.727 -125.411 L -283.66 -125.663 L -283.659 -125.664 L -283.549 -125.9 L -283.549 -125.9 L -283.399 -126.114 L -283.399 -126.115 L -283.214 -126.299 L -283.214 -126.299 L -283 -126.449 L -283 -126.449 L -282.763 -126.56 L -282.763 -126.56 L -282.51 -126.627 L -282.51 -126.627 L -282.25 -126.65 L -282.249 -126.65 L -281.99 -126.627 L -281.989 -126.627 L -281.737 -126.56 L -281.736 -126.559 L -281.5 -126.449 L -281.5 -126.449 L -281.286 -126.299 L -281.285 -126.299 L -281.101 -126.114 L -281.101 -126.114 L -280.951 -125.9 L -280.951 -125.9 z  M -302.25 -126.65 L -302.249 -126.65 L -301.99 -126.627 L -301.989 -126.627 L -301.737 -126.56 L -301.736 -126.559 L -301.5 -126.449 L -301.5 -126.449 L -301.286 -126.299 L -301.285 -126.299 L -301.101 -126.114 L -301.101 -126.114 L -300.951 -125.9 L -300.951 -125.9 L -300.84 -125.663 L -300.84 -125.662 L -300.773 -125.41 L -300.75 -125.151 L -300.75 -125.15 L -300.75 -125.15 L -300.75 -125.138 L -300.75 -102.15 L -300.75 -102.15 L -300.75 -102.149 L -300.773 -101.89 L -300.773 -101.889 L -300.84 -101.637 L -300.841 -101.636 L -300.951 -101.4 L -300.951 -101.4 L -301.101 -101.186 L -301.101 -101.185 L -301.286 -101.001 L -301.286 -101.001 L -301.5 -100.851 L -301.501 -100.851 L -301.737 -100.74 L -301.738 -100.74 L -301.99 -100.673 L -301.99 -100.673 L -302.25 -100.65 L -302.251 -100.65 L -302.51 -100.673 L -302.511 -100.673 L -302.763 -100.74 L -302.764 -100.741 L -303 -100.851 L -303 -100.851 L -303.214 -101.001 L -303.215 -101.001 L -303.399 -101.186 L -303.399 -101.186 L -303.549 -101.4 L -303.549 -101.4 L -303.66 -101.637 L -303.66 -101.638 L -303.727 -101.89 L -303.75 -102.149 L -303.75 -102.15 L -303.75 -102.15 L -303.75 -102.162 L -303.75 -125.15 L -303.75 -125.15 L -303.75 -125.151 L -303.727 -125.41 L -303.727 -125.411 L -303.66 -125.663 L -303.659 -125.664 L -303.549 -125.9 L -303.549 -125.9 L -303.399 -126.114 L -303.399 -126.115 L -303.214 -126.299 L -303.214 -126.299 L -303 -126.449 L -303 -126.449 L -302.763 -126.56 L -302.763 -126.56 L -302.51 -126.627 L -302.51 -126.627 z  M 46.5 -102.162 L 46.5 -125.15 L 46.5 -125.15 L 46.5 -125.151 L 46.5228 -125.41 L 46.5229 -125.411 L 46.5904 -125.663 L 46.5907 -125.664 L 46.7009 -125.9 L 46.7013 -125.9 L 46.8509 -126.114 L 46.8513 -126.115 L 47.0358 -126.299 L 47.0363 -126.299 L 47.25 -126.449 L 47.2505 -126.449 L 47.487 -126.56 L 47.4875 -126.56 L 47.7395 -126.627 L 47.7401 -126.627 L 48 -126.65 L 48.0005 -126.65 L 48.2605 -126.627 L 48.261 -126.627 L 48.513 -126.56 L 48.5135 -126.559 L 48.75 -126.449 L 48.7504 -126.449 L 48.9642 -126.299 L 48.9646 -126.299 L 49.1491 -126.114 L 49.1494 -126.114 L 49.299 -125.9 L 49.2993 -125.9 L 49.4095 -125.663 L 49.4097 -125.662 L 49.4772 -125.41 L 49.4999 -125.151 L 49.5 -125.15 L 49.5 -125.15 L 49.5 -125.138 L 49.5 -102.15 L 49.5 -102.15 L 49.4999 -102.149 L 49.4772 -101.89 L 49.4771 -101.889 L 49.4095 -101.637 L 49.4093 -101.636 L 49.299 -101.4 L 49.2987 -101.4 L 49.1491 -101.186 L 49.1487 -101.185 L 48.9642 -101.001 L 48.9637 -101.001 L 48.75 -100.851 L 48.7495 -100.851 L 48.513 -100.74 L 48.5125 -100.74 L 48.2605 -100.673 L 48.2599 -100.673 L 48 -100.65 L 47.9994 -100.65 L 47.7395 -100.673 L 47.739 -100.673 L 47.487 -100.74 L 47.4865 -100.741 L 47.25 -100.851 L 47.2495 -100.851 L 47.0358 -101.001 L 47.0354 -101.001 L 46.8509 -101.186 L 46.8506 -101.186 L 46.7009 -101.4 L 46.7007 -101.4 L 46.5904 -101.637 L 46.5903 -101.638 L 46.5228 -101.89 L 46.5 -102.149 L 46.5 -102.15 L 46.5 -102.15 z  M -280.75 216.35 L -280.75 216.35 L -280.75 216.351 L -280.773 216.61 L -280.773 216.611 L -280.84 216.863 L -280.841 216.864 L -280.951 217.1 L -280.951 217.1 L -281.101 217.314 L -281.101 217.315 L -281.286 217.499 L -281.286 217.499 L -281.5 217.649 L -281.501 217.649 L -281.737 217.76 L -281.738 217.76 L -281.99 217.827 L -281.99 217.827 L -282.25 217.85 L -282.251 217.85 L -282.51 217.827 L -282.511 217.827 L -282.763 217.76 L -282.764 217.759 L -283 217.649 L -283 217.649 L -283.214 217.499 L -283.215 217.499 L -283.399 217.314 L -283.399 217.314 L -283.549 217.1 L -283.549 217.099 L -283.66 216.863 L -283.66 216.862 L -283.727 216.61 L -283.75 216.351 L -283.75 216.35 L -283.75 216.35 L -283.75 216.338 L -283.75 193.35 L -283.75 193.35 L -283.75 193.349 L -283.727 193.09 L -283.727 193.089 L -283.66 192.837 L -283.659 192.836 L -283.549 192.6 L -283.549 192.6 L -283.399 192.386 L -283.399 192.385 L -283.214 192.201 L -283.214 192.201 L -283 192.051 L -283 192.051 L -282.763 191.94 L -282.763 191.94 L -282.51 191.873 L -282.51 191.873 L -282.25 191.85 L -282.249 191.85 L -281.99 191.873 L -281.989 191.873 L -281.737 191.94 L -281.736 191.941 L -281.5 192.051 L -281.5 192.051 L -281.286 192.201 L -281.285 192.201 L -281.101 192.386 L -281.101 192.386 L -280.951 192.6 L -280.951 192.6 L -280.84 192.837 L -280.84 192.838 L -280.773 193.09 L -280.75 193.349 L -280.75 193.35 L -280.75 193.35 L -280.75 193.362 z  M 26.5 -125.15 L 26.5 -125.15 L 26.5 -125.151 L 26.5228 -125.41 L 26.5229 -125.411 L 26.5904 -125.663 L 26.5907 -125.664 L 26.7009 -125.9 L 26.7013 -125.9 L 26.8509 -126.114 L 26.8513 -126.115 L 27.0358 -126.299 L 27.0363 -126.299 L 27.25 -126.449 L 27.2505 -126.449 L 27.487 -126.56 L 27.4875 -126.56 L 27.7395 -126.627 L 27.7401 -126.627 L 28 -126.65 L 28.0005 -126.65 L 28.2605 -126.627 L 28.261 -126.627 L 28.513 -126.56 L 28.5135 -126.559 L 28.75 -126.449 L 28.7504 -126.449 L 28.9642 -126.299 L 28.9646 -126.299 L 29.1491 -126.114 L 29.1494 -126.114 L 29.299 -125.9 L 29.2993 -125.9 L 29.4095 -125.663 L 29.4097 -125.662 L 29.4772 -125.41 L 29.4999 -125.151 L 29.5 -125.15 L 29.5 -125.15 L 29.5 -125.138 L 29.5 -102.15 L 29.5 -102.15 L 29.4999 -102.149 L 29.4772 -101.89 L 29.4771 -101.889 L 29.4095 -101.637 L 29.4093 -101.636 L 29.299 -101.4 L 29.2987 -101.4 L 29.1491 -101.186 L 29.1487 -101.185 L 28.9642 -101.001 L 28.9637 -101.001 L 28.75 -100.851 L 28.7495 -100.851 L 28.513 -100.74 L 28.5125 -100.74 L 28.2605 -100.673 L 28.2599 -100.673 L 28 -100.65 L 27.9994 -100.65 L 27.7395 -100.673 L 27.739 -100.673 L 27.487 -100.74 L 27.4865 -100.741 L 27.25 -100.851 L 27.2495 -100.851 L 27.0358 -101.001 L 27.0354 -101.001 L 26.8509 -101.186 L 26.8506 -101.186 L 26.7009 -101.4 L 26.7007 -101.4 L 26.5904 -101.637 L 26.5903 -101.638 L 26.5228 -101.89 L 26.5 -102.149 L 26.5 -102.15 L 26.5 -102.15 L 26.5 -102.162 z  M -300.75 216.35 L -300.75 216.35 L -300.75 193.362 L -300.75 193.35 L -300.75 193.35 L -300.75 193.349 L -300.773 193.09 L -300.84 192.838 L -300.84 192.837 L -300.951 192.6 L -300.951 192.6 L -301.101 192.386 L -301.101 192.386 L -301.285 192.201 L -301.286 192.201 L -301.5 192.051 L -301.5 192.051 L -301.736 191.941 L -301.737 191.94 L -301.989 191.873 L -301.99 191.873 L -302.249 191.85 L -302.25 191.85 L -302.51 191.873 L -302.51 191.873 L -302.763 191.94 L -302.763 191.94 L -303 192.051 L -303 192.051 L -303.214 192.201 L -303.214 192.201 L -303.399 192.385 L -303.399 192.386 L -303.549 192.6 L -303.549 192.6 L -303.659 192.836 L -303.66 192.837 L -303.727 193.089 L -303.727 193.09 L -303.75 193.349 L -303.75 193.35 L -303.75 193.35 L -303.75 216.338 L -303.75 216.35 L -303.75 216.35 L -303.75 216.351 L -303.727 216.61 L -303.66 216.862 L -303.66 216.863 L -303.549 217.099 L -303.549 217.1 L -303.399 217.314 L -303.399 217.314 L -303.215 217.499 L -303.214 217.499 L -303 217.649 L -303 217.649 L -302.764 217.759 L -302.763 217.76 L -302.511 217.827 L -302.51 217.827 L -302.251 217.85 L -302.25 217.85 L -301.99 217.827 L -301.99 217.827 L -301.738 217.76 L -301.737 217.76 L -301.501 217.649 L -301.5 217.649 L -301.286 217.499 L -301.286 217.499 L -301.101 217.315 L -301.101 217.314 L -300.951 217.1 L -300.951 217.1 L -300.841 216.864 L -300.84 216.863 L -300.773 216.611 L -300.773 216.61 L -300.75 216.351 z  M -355.943 -149.25 L -247 -149.25 L -247 -149.081 L -247 171.583 L -246.874 171.583 L -7.00001 171.583 L -7.00001 171.415 L -7.00001 -149.25 L -6.9627 -149.25 L 64 -149.25 L 64 -149.053 L 64 225.75 L 63.7793 225.75 L -356 225.75 L -356 225.553 L -356 -149.25 z  M 26.5 193.35 L 26.5 193.35 L 26.5 193.349 L 26.5228 193.09 L 26.5229 193.089 L 26.5904 192.837 L 26.5907 192.836 L 26.7009 192.6 L 26.7013 192.6 L 26.8509 192.386 L 26.8513 192.385 L 27.0358 192.201 L 27.0363 192.201 L 27.25 192.051 L 27.2505 192.051 L 27.487 191.94 L 27.4875 191.94 L 27.7395 191.873 L 27.7401 191.873 L 28 191.85 L 28.0005 191.85 L 28.2605 191.873 L 28.261 191.873 L 28.513 191.94 L 28.5135 191.941 L 28.75 192.051 L 28.7504 192.051 L 28.9642 192.201 L 28.9646 192.201 L 29.1491 192.386 L 29.1494 192.386 L 29.299 192.6 L 29.2993 192.6 L 29.4095 192.837 L 29.4097 192.838 L 29.4772 193.09 L 29.4999 193.349 L 29.5 193.35 L 29.5 193.35 L 29.5 193.362 L 29.5 216.35 L 29.5 216.35 L 29.4999 216.351 L 29.4772 216.61 L 29.4771 216.611 L 29.4095 216.863 L 29.4093 216.864 L 29.299 217.1 L 29.2987 217.1 L 29.1491 217.314 L 29.1487 217.315 L 28.9642 217.499 L 28.9637 217.499 L 28.75 217.649 L 28.7495 217.649 L 28.513 217.76 L 28.5125 217.76 L 28.2605 217.827 L 28.2599 217.827 L 28 217.85 L 27.9994 217.85 L 27.7395 217.827 L 27.739 217.827 L 27.487 217.76 L 27.4865 217.759 L 27.25 217.649 L 27.2495 217.649 L 27.0358 217.499 L 27.0354 217.499 L 26.8509 217.314 L 26.8506 217.314 L 26.7009 217.1 L 26.7007 217.099 L 26.5904 216.863 L 26.5903 216.862 L 26.5228 216.61 L 26.5 216.351 L 26.5 216.35 L 26.5 216.35 L 26.5 216.338 z  M 39.5 -122.15 L 39.5 -122.15 L 39.5 -145.138 L 39.5 -145.15 L 39.5 -145.15 L 39.4999 -145.151 L 39.4772 -145.41 L 39.4097 -145.662 L 39.4095 -145.663 L 39.2993 -145.9 L 39.299 -145.9 L 39.1494 -146.114 L 39.1491 -146.114 L 38.9646 -146.299 L 38.9642 -146.299 L 38.7504 -146.449 L 38.75 -146.449 L 38.5135 -146.559 L 38.513 -146.56 L 38.261 -146.627 L 38.2605 -146.627 L 38.0005 -146.65 L 38 -146.65 L 37.7401 -146.627 L 37.7395 -146.627 L 37.4875 -146.56 L 37.487 -146.56 L 37.2505 -146.449 L 37.25 -146.449 L 37.0363 -146.299 L 37.0358 -146.299 L 36.8513 -146.115 L 36.8509 -146.114 L 36.7013 -145.9 L 36.7009 -145.9 L 36.5907 -145.664 L 36.5904 -145.663 L 36.5229 -145.411 L 36.5228 -145.41 L 36.5 -145.151 L 36.5 -145.15 L 36.5 -145.15 L 36.5 -122.162 L 36.5 -122.15 L 36.5 -122.15 L 36.5 -122.149 L 36.5228 -121.89 L 36.5903 -121.638 L 36.5904 -121.637 L 36.7007 -121.4 L 36.7009 -121.4 L 36.8506 -121.186 L 36.8509 -121.186 L 37.0354 -121.001 L 37.0358 -121.001 L 37.2495 -120.851 L 37.25 -120.851 L 37.4865 -120.741 L 37.487 -120.74 L 37.739 -120.673 L 37.7395 -120.673 L 37.9994 -120.65 L 38 -120.65 L 38.2599 -120.673 L 38.2605 -120.673 L 38.5125 -120.74 L 38.513 -120.74 L 38.7495 -120.851 L 38.75 -120.851 L 38.9637 -121.001 L 38.9642 -121.001 L 39.1487 -121.185 L 39.1491 -121.186 L 39.2987 -121.4 L 39.299 -121.4 L 39.4093 -121.636 L 39.4095 -121.637 L 39.4771 -121.889 L 39.4772 -121.89 L 39.4999 -122.149 z  M -290.75 -122.15 L -290.75 -122.15 L -290.75 -145.138 L -290.75 -145.15 L -290.75 -145.15 L -290.75 -145.151 L -290.773 -145.41 L -290.84 -145.662 L -290.84 -145.663 L -290.951 -145.9 L -290.951 -145.9 L -291.101 -146.114 L -291.101 -146.114 L -291.285 -146.299 L -291.286 -146.299 L -291.5 -146.449 L -291.5 -146.449 L -291.736 -146.559 L -291.737 -146.56 L -291.989 -146.627 L -291.99 -146.627 L -292.249 -146.65 L -292.25 -146.65 L -292.51 -146.627 L -292.51 -146.627 L -292.763 -146.56 L -292.763 -146.56 L -293 -146.449 L -293 -146.449 L -293.214 -146.299 L -293.214 -146.299 L -293.399 -146.115 L -293.399 -146.114 L -293.549 -145.9 L -293.549 -145.9 L -293.659 -145.664 L -293.66 -145.663 L -293.727 -145.411 L -293.727 -145.41 L -293.75 -145.151 L -293.75 -145.15 L -293.75 -145.15 L -293.75 -122.162 L -293.75 -122.15 L -293.75 -122.15 L -293.75 -122.149 L -293.727 -121.89 L -293.66 -121.638 L -293.66 -121.637 L -293.549 -121.4 L -293.549 -121.4 L -293.399 -121.186 L -293.399 -121.186 L -293.215 -121.001 L -293.214 -121.001 L -293 -120.851 L -293 -120.851 L -292.764 -120.741 L -292.763 -120.74 L -292.511 -120.673 L -292.51 -120.673 L -292.251 -120.65 L -292.25 -120.65 L -291.99 -120.673 L -291.99 -120.673 L -291.738 -120.74 L -291.737 -120.74 L -291.501 -120.851 L -291.5 -120.851 L -291.286 -121.001 L -291.286 -121.001 L -291.101 -121.185 L -291.101 -121.186 L -290.951 -121.4 L -290.951 -121.4 L -290.841 -121.636 L -290.84 -121.637 L -290.773 -121.889 L -290.773 -121.89 L -290.75 -122.149 z  " fill= "none" stroke="rgb(0,0,255)" stroke-width="0.05mm" />
</svg>
